<?xml version="1.0" standalone="no"?>
<!DOCTYPE svg PUBLIC "-//W3C//DTD SVG 20010904//EN"
 "http://www.w3.org/TR/2001/REC-SVG-20010904/DTD/svg10.dtd">
<svg version="1.0" xmlns="http://www.w3.org/2000/svg"
 width="151.000000pt" height="141.000000pt" viewBox="0 0 151.000000 141.000000"
 preserveAspectRatio="xMidYMid meet">

<g transform="translate(0.000000,141.000000) scale(0.100000,-0.100000)"
fill="#000000" stroke="none">
<path d="M0 705 l0 -705 755 0 755 0 0 705 0 705 -755 0 -755 0 0 -705z m980
225 c131 -35 202 -228 135 -362 -28 -56 -65 -94 -119 -123 -20 -11 -36 -24
-36 -29 0 -21 33 -96 42 -96 5 0 6 4 3 10 -3 6 1 7 9 4 9 -3 16 -1 16 5 0 6 7
11 16 11 11 0 14 5 10 16 -5 13 -4 14 7 6 19 -16 29 -4 16 20 -6 11 -8 22 -5
26 3 3 6 0 6 -6 0 -6 7 -17 15 -25 13 -14 10 -18 -29 -41 -66 -38 -106 -75
-106 -97 0 -10 4 -19 8 -19 13 0 45 31 71 68 17 24 28 31 42 27 31 -10 83 13
124 55 41 42 88 53 113 28 17 -17 15 -64 -5 -84 -16 -16 -18 -15 -27 5 -10 23
-21 27 -31 11 -9 -15 -25 -12 -25 6 0 20 -19 8 -30 -20 -7 -16 -9 -17 -9 -4
-1 15 -5 15 -31 6 -28 -9 -29 -11 -13 -23 10 -7 22 -10 28 -7 10 7 16 8 36 11
5 0 7 6 3 13 -5 7 -3 8 5 4 28 -18 -55 -76 -108 -76 -21 0 -36 -9 -54 -31 -26
-34 -115 -69 -175 -69 -63 0 -145 30 -179 66 -20 22 -41 34 -58 34 -35 0 -73
21 -114 64 -40 41 -56 45 -64 15 -7 -25 -24 -17 -38 18 -14 37 12 73 52 73 24
0 42 -11 78 -48 43 -44 51 -48 92 -47 41 0 47 -3 82 -47 20 -27 44 -48 52 -48
21 0 18 34 -5 55 -19 17 -19 19 -2 47 16 28 16 30 -3 45 -20 15 -20 15 3 8 12
-3 22 -2 22 4 0 5 3 16 6 24 4 10 -5 18 -28 26 -36 12 -116 89 -136 131 -22
47 -28 122 -15 180 35 155 177 227 353 180z m-416 -445 c-21 -32 -17 -41 34
-71 43 -26 43 -26 49 -5 3 12 9 21 14 21 5 0 9 5 9 10 0 6 -9 10 -21 10 -13 0
-18 4 -13 12 5 7 2 9 -8 6 -8 -4 -15 0 -15 7 0 16 24 6 66 -26 17 -14 20 -19
8 -19 -20 0 -41 -36 -31 -52 11 -17 -108 52 -128 74 -25 28 -23 36 15 47 17 5
33 10 35 10 1 1 -5 -10 -14 -24z m681 5 c12 -19 -21 -54 -76 -83 -39 -21 -47
-23 -29 -8 14 11 29 21 33 21 4 0 2 10 -4 23 -12 22 -12 22 10 3 18 -16 21
-17 21 -3 0 36 -10 46 -36 35 -13 -6 -24 -15 -24 -19 0 -5 -7 -6 -15 -3 -8 4
-15 2 -15 -4 0 -5 -9 -12 -21 -15 -32 -9 -5 18 44 42 45 22 102 28 112 11z
m-232 -111 c4 -16 3 -18 -9 -8 -7 6 -11 15 -8 20 8 13 11 11 17 -12z m-269
-56 c3 -7 -13 -1 -34 13 -22 15 -40 28 -40 30 0 9 70 -32 74 -43z"/>
<path d="M769 871 c-22 -17 -25 -32 -36 -148 -6 -70 -10 -129 -10 -129 1 -1
18 -4 37 -8 34 -6 37 -4 48 27 7 18 13 56 13 83 l2 49 10 -37 c10 -35 13 -38
47 -38 34 0 39 4 53 38 l16 37 -2 -47 c-1 -31 2 -49 10 -53 9 -3 14 -30 15
-82 1 -52 3 -63 5 -33 5 48 15 60 52 60 17 0 22 4 17 16 -3 9 -9 67 -13 130
-6 107 -8 116 -31 134 -14 11 -32 20 -42 20 -22 0 -55 -37 -67 -75 l-10 -30
-7 32 c-7 32 -47 73 -71 73 -7 0 -23 -9 -36 -19z"/>
<path d="M874 596 c-4 -9 -5 -19 -2 -21 2 -2 10 0 18 5 12 7 12 12 3 21 -10
10 -14 9 -19 -5z"/>
<path d="M792 498 c-2 -44 0 -48 21 -47 16 1 17 3 5 6 -12 3 -18 17 -21 46
l-4 42 -1 -47z"/>
<path d="M878 513 c7 -3 16 -2 19 1 4 3 -2 6 -13 5 -11 0 -14 -3 -6 -6z"/>
<path d="M923 453 c9 -2 25 -2 35 0 9 3 1 5 -18 5 -19 0 -27 -2 -17 -5z"/>
<path d="M544 339 c-4 -7 3 -20 17 -30 29 -22 59 -31 59 -17 0 6 9 0 20 -13
10 -13 19 -19 20 -12 0 16 -28 43 -46 43 -8 0 -17 7 -20 15 -5 13 -9 13 -22 3
-11 -9 -13 -9 -9 -1 4 6 3 14 -2 17 -5 4 -13 1 -17 -5z"/>
<path d="M1104 294 c3 -8 1 -14 -4 -14 -6 0 -10 5 -10 11 0 5 -4 8 -10 4 -10
-6 -2 -35 10 -35 5 0 15 6 22 13 7 8 19 12 26 9 6 -2 12 1 12 7 0 6 -3 11 -7
12 -5 0 -16 2 -26 4 -13 2 -17 -1 -13 -11z"/>
<path d="M850 174 c0 -10 7 -14 22 -12 32 5 35 28 4 28 -17 0 -26 -5 -26 -16z"/>
</g>
</svg>
